<svg xmlns="http://www.w3.org/2000/svg" viewBox="0 0 16 16" shape-rendering="crispEdges">
 <!-- VectorBot: latent magenta / electric cyan pixel bot -->
 <rect width="16" height="16" fill="#0a0f1e"/>
 <!-- grid glow -->
 <rect x="1" y="1" width="1" height="1" fill="#1e1b4b"/>
 <rect x="14" y="1" width="1" height="1" fill="#1e1b4b"/>
 <rect x="1" y="14" width="1" height="1" fill="#1e1b4b"/>
 <rect x="14" y="14" width="1" height="1" fill="#1e1b4b"/>
 <!-- petals / neural ring -->
 <rect x="6" y="2" width="4" height="2" fill="#e879f9"/>
 <rect x="6" y="12" width="4" height="2" fill="#e879f9"/>
 <rect x="2" y="6" width="2" height="4" fill="#c026d3"/>
 <rect x="12" y="6" width="2" height="4" fill="#c026d3"/>
 <rect x="3" y="3" width="2" height="2" fill="#a78bfa"/>
 <rect x="11" y="3" width="2" height="2" fill="#22d3ee"/>
 <rect x="3" y="11" width="2" height="2" fill="#a78bfa"/>
 <rect x="11" y="11" width="2" height="2" fill="#22d3ee"/>
 <!-- body -->
 <rect x="5" y="5" width="6" height="6" fill="#4c1d95"/>
 <!-- face / probe core -->
 <rect x="6" y="6" width="2" height="2" fill="#22d3ee"/>
 <rect x="9" y="6" width="1" height="2" fill="#67e8f9"/>
 <rect x="6" y="9" width="4" height="1" fill="#e879f9"/>
</svg>
